<svg xmlns="http://www.w3.org/2000/svg" width="17" height="20.001" viewBox="0 0 17 20.001">
  <g id="Page-1" transform="translate(0 0)">
    <g id="Dribbble-Light-Preview" transform="translate(-102 -7439)">
      <g id="icons" transform="translate(56 160)">
        <path id="apple-_173_" data-name="apple-[#173]" d="M57.571,7282.19a4.27,4.27,0,0,0,1.086-3.19,4.731,4.731,0,0,0-3.075,1.52,4.056,4.056,0,0,0-1.108,3.09,3.918,3.918,0,0,0,3.1-1.42m2.628,7.44a4.446,4.446,0,0,0,2.8,4.04,10.716,10.716,0,0,1-1.444,2.85c-.871,1.21-1.774,2.43-3.2,2.45-1.4.03-1.847-.79-3.446-.79s-2.1.77-3.42.82c-1.373.05-2.42-1.32-3.3-2.53-1.794-2.49-3.164-7.02-1.324-10.08a5.162,5.162,0,0,1,4.321-2.51c1.348-.02,2.621.87,3.445.87s2.371-1.07,4-.91a4.923,4.923,0,0,1,3.818,1.98,4.508,4.508,0,0,0-2.256,3.81" fill="#fff" fill-rule="evenodd"/>
      </g>
    </g>
  </g>
</svg>
