<svg xmlns="http://www.w3.org/2000/svg" width="75.441" height="75.441" viewBox="0 0 75.441 75.441">
  <g id="页面-1" transform="translate(0.35 0.35)">
    <g id="Media">
      <g id="movie_line">
        <path id="MingCute" d="M75.441,0V75.441H0V0ZM39.586,73.108l-.036.005-.223.112-.06.012h0l-.048-.012L39,73.114a.068.068,0,0,0-.074.017l-.013.034-.054,1.343.016.064.035.038.326.233.047.012h0l.037-.012.326-.233.04-.05h0l.011-.052-.054-1.343a.068.068,0,0,0-.051-.057Zm.833-.354-.044.006-.581.29-.031.032h0l-.008.035.056,1.35.015.04h0l.027.022.632.291a.079.079,0,0,0,.09-.025l.013-.044-.107-1.932a.08.08,0,0,0-.061-.067Zm-2.249.006a.072.072,0,0,0-.086.017l-.018.044-.107,1.932a.072.072,0,0,0,.053.074l.049,0,.632-.291.03-.025h0l.012-.037.056-1.35-.01-.04h0l-.03-.028Z" transform="translate(-0.35 -0.35)" fill="none"/>
        <g id="chat-of-love-svgrepo-com" transform="translate(4.65 -34.017)">
          <g id="Group_1166" data-name="Group 1166" transform="translate(0 44.667)">
            <path id="Path_4977" data-name="Path 4977" d="M45.36,59.871c-.956-8.511-10.714-15.2-22.632-15.2C10.175,44.667,0,52.087,0,61.238S10.175,77.809,22.727,77.809c.471,0,.932-.031,1.4-.052a12.589,12.589,0,0,1-.084-1.262C24.039,67.465,33.555,60.105,45.36,59.871Zm-22.3,6.939-.23-.235c-6.447-2.6-8.8-8.468-5.965-11.07s6.091.782,6.091.782h.024s3.253-3.385,6.092-.782S29.507,64.208,23.059,66.81Z" transform="translate(0 -44.667)" fill="#e23330"/>
            <ellipse id="Ellipse_37" data-name="Ellipse 37" cx="3.693" cy="2.921" rx="3.693" ry="2.921" transform="translate(9.66 33.562)" fill="#e23330"/>
            <ellipse id="Ellipse_38" data-name="Ellipse 38" cx="1.618" cy="1.251" rx="1.618" ry="1.251" transform="translate(8.855 40.199)" fill="#e23330"/>
            <path id="Path_4978" data-name="Path 4978" d="M250.619,200.041c0-7.8-8.668-14.118-19.361-14.118-.188,0-.371.017-.557.02-10.433.217-18.8,6.438-18.8,14.1a10.156,10.156,0,0,0,.073,1.05c.74,7.3,9.082,13.067,19.289,13.067C241.951,214.159,250.619,207.839,250.619,200.041Zm-19.448,4.745-.2,0c-5.493-2.217-7.541-7.017-5.123-9.234s5.191,1.064,5.191,1.064h.02s2.771-3.281,5.191-1.064S236.664,202.569,231.171,204.786Z" transform="translate(-185.326 -168.21)" fill="#e23330"/>
            <path id="Path_4979" data-name="Path 4979" d="M411.2,416.438a2.4,2.4,0,0,0-1.405-2.071,3.744,3.744,0,0,0-1.741-.417,3.151,3.151,0,0,0-2.976,1.716,2,2,0,0,0-.17.772c0,1.374,1.409,2.488,3.147,2.488S411.2,417.812,411.2,416.438Z" transform="translate(-354.133 -367.645)" fill="#e23330"/>
            <ellipse id="Ellipse_39" data-name="Ellipse 39" cx="1.379" cy="1.066" rx="1.379" ry="1.066" transform="translate(54.993 51.959)" fill="#e23330"/>
          </g>
        </g>
      </g>
    </g>
  </g>
</svg>
