<svg xmlns="http://www.w3.org/2000/svg" width="21.5" height="18.5" viewBox="0 0 21.5 18.5">
  <g id="style_doutone" data-name="style=doutone" transform="translate(-1.25 -2.75)">
    <g id="email">
      <path id="vector_Stroke_" data-name="vector (Stroke)" d="M3.885,5.237A4.226,4.226,0,0,0,2.75,8.5v7a4.226,4.226,0,0,0,1.135,3.263A4.443,4.443,0,0,0,7,19.75H17a4.443,4.443,0,0,0,3.115-.987A4.226,4.226,0,0,0,21.25,15.5v-7a4.226,4.226,0,0,0-1.135-3.263A4.443,4.443,0,0,0,17,4.25H7A4.443,4.443,0,0,0,3.885,5.237Zm-1.021-1.1A5.916,5.916,0,0,1,7,2.75H17a5.916,5.916,0,0,1,4.135,1.388A5.7,5.7,0,0,1,22.75,8.5v7a5.7,5.7,0,0,1-1.615,4.362A5.916,5.916,0,0,1,17,21.25H7a5.916,5.916,0,0,1-4.135-1.388A5.7,5.7,0,0,1,1.25,15.5v-7A5.7,5.7,0,0,1,2.865,4.138Z" fill="#fff" fill-rule="evenodd"/>
      <path id="vector_Stroke__2" data-name="vector (Stroke)_2" d="M19.363,7.31a.75.75,0,0,1-.135,1.052l-5.547,4.286a2.75,2.75,0,0,1-3.363,0L4.771,8.362a.75.75,0,1,1,.917-1.187l5.547,4.286a1.25,1.25,0,0,0,1.529,0l5.547-4.286A.75.75,0,0,1,19.363,7.31Z" fill="#e23330" fill-rule="evenodd"/>
    </g>
  </g>
</svg>
