<svg xmlns="http://www.w3.org/2000/svg" width="51.715" height="51.727" viewBox="0 0 51.715 51.727">
  <path id="matches-svgrepo-com_1_" data-name="matches-svgrepo-com (1)" d="M14.774,0a.958.958,0,0,0-.453.129C9.654,2.736,0,13.441,0,29.9c0,6.7,3.209,16.342,10.281,21.628a.989.989,0,0,0,.453.162.974.974,0,0,0,1.229-1,1.045,1.045,0,0,0-.323-.744c-.78-.93-8.777-15.615-1.875-27.253,3.007,12.758,8.43,5.286,4.817-6.3,4.3,3.657,6.813,11.347,1.584,18.524-.234.347-.469.7-.744,1.035a1.043,1.043,0,0,0-.032,1.261,1.025,1.025,0,0,0,1.2.356c3.2-1.208,9.181-3.455,9.181-11.865,0-4.514-3.2-10.616-6.013-16-1.835-3.516-3.56-6.866-3.912-8.858A1.021,1.021,0,0,0,15.259.1,1.064,1.064,0,0,0,14.774,0ZM48.3,24.861a3.082,3.082,0,0,0-1.164.356L20.012,39.926a5.73,5.73,0,0,0-1.164-.129,7.11,7.11,0,0,0-3.265.841,6.9,6.9,0,0,0-3.007,3.007,4.136,4.136,0,0,0-.065,3.815,4.423,4.423,0,0,0,4.073,2.2,7.1,7.1,0,0,0,3.265-.841,6.592,6.592,0,0,0,3.233-3.492L50.11,30.648a3.1,3.1,0,0,0-.614-5.69A3.138,3.138,0,0,0,48.3,24.861Zm.226,2.037a1.026,1.026,0,0,1,1,.55,1.006,1.006,0,0,1-.42,1.39L23.277,42.9A4.088,4.088,0,0,0,22.921,42a3.625,3.625,0,0,0-.647-.873l25.863-14.1A1.023,1.023,0,0,1,48.526,26.9Z" transform="translate(0 0)" fill="#e23330"/>
</svg>
