<svg xmlns="http://www.w3.org/2000/svg" width="75.441" height="75.441" viewBox="0 0 75.441 75.441">
  <g id="页面-1" transform="translate(0.35 0.35)">
    <g id="Media">
      <g id="movie_line">
        <path id="MingCute" d="M75.441,0V75.441H0V0ZM39.586,73.108l-.036.005-.223.112-.06.012h0l-.048-.012L39,73.114a.068.068,0,0,0-.074.017l-.013.034-.054,1.343.016.064.035.038.326.233.047.012h0l.037-.012.326-.233.04-.05h0l.011-.052-.054-1.343a.068.068,0,0,0-.051-.057Zm.833-.354-.044.006-.581.29-.031.032h0l-.008.035.056,1.35.015.04h0l.027.022.632.291a.079.079,0,0,0,.09-.025l.013-.044-.107-1.932a.08.08,0,0,0-.061-.067Zm-2.249.006a.072.072,0,0,0-.086.017l-.018.044-.107,1.932a.072.072,0,0,0,.053.074l.049,0,.632-.291.03-.025h0l.012-.037.056-1.35-.01-.04h0l-.03-.028Z" transform="translate(-0.35 -0.35)" fill="none"/>
        <g id="meeting-svgrepo-com" transform="translate(6.65 6.636)">
          <path id="Path_4980" data-name="Path 4980" d="M102.537,24.261A12.124,12.124,0,1,0,90.414,12.138,12.137,12.137,0,0,0,102.537,24.261ZM96.673,10.842a1.833,1.833,0,0,1,2.591,0l1.751,1.751,4.8-4.8a1.832,1.832,0,0,1,2.591,2.591l-6.092,6.092a1.832,1.832,0,0,1-2.591,0l-3.046-3.046A1.832,1.832,0,0,1,96.673,10.842Z" transform="translate(-71.543)" fill="#e23330"/>
          <path id="Path_4981" data-name="Path 4981" d="M7.131,30.8A7.131,7.131,0,1,0,0,23.668,7.139,7.139,0,0,0,7.131,30.8Z" transform="translate(0 -13.074)" fill="#e23330"/>
          <path id="Path_4982" data-name="Path 4982" d="M3.367,109.407v14.809a6.159,6.159,0,0,0,6.159,6.159h8.027v10.938a1.509,1.509,0,0,0,1.509,1.509h7.112a1.509,1.509,0,0,0,1.509-1.509V125.536a5.2,5.2,0,0,0-5.2-5.2h-6.26v-10.93a6.428,6.428,0,0,0-12.856,0Z" transform="translate(-2.664 -81.475)" fill="#e23330"/>
          <path id="Path_4983" data-name="Path 4983" d="M235.8,30.8a7.131,7.131,0,1,0-7.131-7.131A7.139,7.139,0,0,0,235.8,30.8Z" transform="translate(-180.942 -13.074)" fill="#e23330"/>
          <path id="Path_4984" data-name="Path 4984" d="M188.592,109.407v10.93h-6.26a5.2,5.2,0,0,0-5.2,5.2v15.778a1.509,1.509,0,0,0,1.509,1.509h7.112a1.509,1.509,0,0,0,1.509-1.509V130.375h8.027a6.159,6.159,0,0,0,6.159-6.159V109.407a6.428,6.428,0,0,0-12.856,0Z" transform="translate(-140.163 -81.475)" fill="#e23330"/>
          <path id="Path_4985" data-name="Path 4985" d="M111.776,137.923a1.832,1.832,0,0,0,0-3.664H90.439a1.832,1.832,0,1,0,0,3.664h8.837v28.468a1.832,1.832,0,1,0,3.664,0V137.923Z" transform="translate(-70.113 -106.226)" fill="#e23330"/>
        </g>
      </g>
    </g>
  </g>
</svg>
