<svg xmlns="http://www.w3.org/2000/svg" width="20.871" height="22.477" viewBox="0 0 20.871 22.477">
  <g id="logo-google-playstore-svgrepo-com_1_" data-name="logo-google-playstore-svgrepo-com (1)" transform="translate(-48 -31.997)">
    <path id="Path_4989" data-name="Path 4989" d="M48,55.39V75.107a.217.217,0,0,0,.37.154L58.636,65.249,48.37,55.236a.217.217,0,0,0-.37.154Z" transform="translate(0 -22.013)" fill="#fff"/>
    <path id="Path_4990" data-name="Path 4990" d="M95.889,39.122,83.016,32.029l-.008,0a.219.219,0,0,0-.251.354l10.091,9.649Z" transform="translate(-32.948)" fill="#fff"/>
    <path id="Path_4991" data-name="Path 4991" d="M82.766,289.7a.219.219,0,0,0,.251.354l.008,0L95.9,282.957l-3.041-2.907Z" transform="translate(-32.956 -235.608)" fill="#fff"/>
    <path id="Path_4992" data-name="Path 4992" d="M317.335,193.52l-3.595-1.98-3.38,3.234,3.38,3.233,3.595-1.978A1.439,1.439,0,0,0,317.335,193.52Z" transform="translate(-249.197 -151.538)" fill="#fff"/>
  </g>
</svg>
